PathFileType	4	(X/Y/Z)	/Users/itak/Documents/Research/Walk-IL/dataset/trc/00390_00012.trc
DataRate	CameraRate	NumFrames	NumMarkers	Units	OrigDataRate	OrigDataStartFrame	OrigNumFrames
100.000000	100.000000	4	55	mm	100.000000	368	589
Frame#	Time	LPSI			L3			STRN			T10			C7			CLAV			RBAK			LBAK			LSHO			LUPA			LAEL			LAOL			LWTS			LWPS			LFRA			LIFD			LHPS			LHTS			RSHO			RUPA			RAEL			RAOL			RWTS			RWPS			RFRA			RIFD			RHTS			RHPS			RBHD			LFHD			RFHD			LBHD			LHIP			RHIP			RASI			LASI			LKNE			LTHI			LANK			LTIP			LTOE			LMT5			LHEE			RKNE			RTHI			RANK			RTIP			RTOE			RMT1			RMT5			RHEE			RPSI			LMT1			*53			*54			
		X1	Y1	Z1	X2	Y2	Z2	X3	Y3	Z3	X4	Y4	Z4	X5	Y5	Z5	X6	Y6	Z6	X7	Y7	Z7	X8	Y8	Z8	X9	Y9	Z9	X10	Y10	Z10	X11	Y11	Z11	X12	Y12	Z12	X13	Y13	Z13	X14	Y14	Z14	X15	Y15	Z15	X16	Y16	Z16	X17	Y17	Z17	X18	Y18	Z18	X19	Y19	Z19	X20	Y20	Z20	X21	Y21	Z21	X22	Y22	Z22	X23	Y23	Z23	X24	Y24	Z24	X25	Y25	Z25	X26	Y26	Z26	X27	Y27	Z27	X28	Y28	Z28	X29	Y29	Z29	X30	Y30	Z30	X31	Y31	Z31	X32	Y32	Z32	X33	Y33	Z33	X34	Y34	Z34	X35	Y35	Z35	X36	Y36	Z36	X37	Y37	Z37	X38	Y38	Z38	X39	Y39	Z39	X40	Y40	Z40	X41	Y41	Z41	X42	Y42	Z42	X43	Y43	Z43	X44	Y44	Z44	X45	Y45	Z45	X46	Y46	Z46	X47	Y47	Z47	X48	Y48	Z48	X49	Y49	Z49	X50	Y50	Z50	X51	Y51	Z51	X52	Y52	Z52	X53	Y53	Z53	X54	Y54	Z54	X55	Y55	Z55	

369	3.68	-530.1331176757812	942.2952880859375	-100.3034286499023	-514.6437377929688	1026.971923828125	-32.71940231323242	-270.2445068359375	1172.008544921875	-29.59856224060059	-515.46875	1127.325439453125	-47.84291839599609	-473.213134765625	1374.512939453125	-54.85936737060547	-320.61083984375	1292.657104492188	-33.85056304931641	-524.2261962890625	1229.04638671875	6.010581493377686	-479.5401000976562	1339.513549804688	-159.7682037353516	-386.8790588378906	1355.592529296875	-200.1583557128906	-401.8102416992188	1238.52587890625	-272.0658569335938	-360.3886413574219	1049.633422851562	-304.4657592773438	-411.4631042480469	1016.495544433594	-245.6361846923828	-213.4460906982422	880.0870971679688	-295.760498046875	-268.638916015625	848.9877319335938	-348.0933532714844	-322.7133178710938	957.556640625	-324.0029296875	-148.2490844726562	717.4251708984375	-319.678466796875	-221.2231140136719	777.364990234375	-352.7889404296875	-164.4151458740234	801.795166015625	-331.9055480957031	-434.037353515625	1350.817749023438	107.4373779296875	-459.6449890136719	1287.017700195312	161.5467071533203	-489.3611145019531	1029.806884765625	204.0298767089844	-482.1596984863281	1014.951354980469	108.2812423706055	-374.7450256347656	811.8377685546875	235.2747802734375	-437.1087951660156	805.1781616210938	272.9096374511719	-476.1625366210938	964.8377685546875	230.061279296875	-383.6864013671875	639.6581420898438	245.4451751708984	-371.1187133789062	708.5524291992188	266.4090576171875	-437.7580261230469	716.0905151367188	277.8754272460938	-442.1069030761719	1554.127197265625	45.16338729858398	-295.9653625488281	1573.287963867188	-87.19063568115234	-311.638427734375	1572.525390625	34.44154739379883	-439.2864379882812	1551.460327148438	-117.2094345092773	-448.7046203613281	932.0631713867188	-218.9938201904297	-431.0801696777344	920.4623413085938	142.4067535400391	-308.2013244628906	929.1410522460938	76.07440185546875	-332.7353820800781	921.3125610351562	-185.9969787597656	-455.8200988769531	434.0712585449219	-178.83349609375	-441.2851257324219	577.3572387695312	-198.0110473632812	-740.2573852539062	74.17179870605469	-155.6204071044922	-600.5419311523438	242.5991668701172	-179.0080261230469	-544.0573120117188	44.29447174072266	-70.25265502929688	-618.3388671875	44.68008041381836	-153.1129455566406	-784.5136108398438	90.50114440917969	-104.4392852783203	-203.0816955566406	482.426025390625	92.4498291015625	-294.886962890625	723.2574462890625	127.3979568481445	-150.4429779052734	59.04960250854492	84.16084289550781	-158.8532409667969	363.2103271484375	79.91180419921875	24.36689186096191	34.29217529296875	12.56793785095215	-51.28445053100586	39.79813003540039	-14.2141695022583	-65.06670379638672	46.62277221679688	84.36142730712891	-225.5506439208984	42.68863677978516	35.91013717651367	-523.0579223632812	942.6234130859375	31.99861526489258	-621.3302612304688	51.35967636108398	-46.07871627807617	nan	nan	nan	nan	nan	nan	
370	3.69	-543.6950073242188	942.9649047851562	-101.8473739624023	-527.6754150390625	1027.131591796875	-34.25171279907227	-282.310546875	1171.0283203125	-31.78488922119141	-528.31982421875	1127.448120117188	-49.49693298339844	-484.4150695800781	1374.567749023438	-56.12208938598633	-332.0530090332031	1291.949829101562	-35.62907028198242	-535.9608764648438	1229.307495117188	4.78449821472168	-491.068603515625	1339.710083007812	-161.0921478271484	-398.413330078125	1355.499145507812	-201.6756896972656	-413.5602111816406	1238.526245117188	-273.6449584960938	-371.5130615234375	1049.405029296875	-305.9817199707031	-422.9684143066406	1016.423217773438	-247.5129852294922	-223.3551177978516	881.6160278320312	-295.8335571289062	-277.6821594238281	850.2005615234375	-348.9389343261719	-333.0325622558594	957.9356689453125	-325.0541381835938	-155.9782409667969	719.93994140625	-319.9865112304688	-229.2230682373047	779.1755981445312	-353.4992980957031	-173.0785675048828	804.1914672851562	-331.8912658691406	-444.8407287597656	1350.40380859375	106.0818862915039	-470.55029296875	1286.541748046875	160.2325134277344	-500.6600341796875	1029.32763671875	202.6279144287109	-494.4166564941406	1014.609375	106.7802200317383	-386.1865234375	811.1145629882812	232.4123687744141	-448.1039123535156	804.5491333007812	270.7440795898438	-487.3329162597656	964.2630004882812	228.3936920166016	-395.5982055664062	638.9090576171875	242.1806640625	-382.4987487792969	707.699951171875	263.1902770996094	-448.9559020996094	715.4337158203125	275.4792175292969	-452.62646484375	1553.836791992188	44.00326538085938	-306.4508361816406	1572.79736328125	-88.40261840820312	-322.1109924316406	1571.900756835938	33.24889373779297	-449.8028564453125	1551.343383789062	-118.3807830810547	-462.4747619628906	932.7025146484375	-220.6968383789062	-444.7323608398438	919.8357543945312	140.3421325683594	-321.4653930664062	928.1917114257812	73.92375183105469	-346.476318359375	921.523681640625	-188.1348724365234	-468.4889526367188	434.3721313476562	-180.5940856933594	-454.8309020996094	577.8063354492188	-200.2330780029297	-743.731689453125	68.40077972412109	-153.5728454589844	-608.51904296875	239.5130615234375	-178.6647644042969	-543.9249877929688	44.45189666748047	-70.419677734375	-619.9555053710938	44.59873199462891	-152.2904968261719	-788.3109130859375	82.37380981445312	-101.9173202514648	-215.3956909179688	483.0889587402344	93.45070648193359	-308.4289855957031	723.8455200195312	126.2868957519531	-150.0824127197266	60.22811508178711	85.42584991455078	-168.2752075195312	365.1853332519531	81.29229736328125	23.52048683166504	35.88899993896484	11.92429637908936	-51.67879104614258	41.59627532958984	-13.87272357940674	-64.46720123291016	47.19599151611328	84.93256378173828	-225.3788757324219	44.02190017700195	37.49177169799805	-536.42138671875	942.5066528320312	30.35190010070801	-622.4974365234375	49.6379508972168	-45.25431060791016	nan	nan	nan	nan	nan	nan	
371	3.7	-557.1116333007812	943.901611328125	-103.5059661865234	-540.8436889648438	1027.548461914062	-35.85410690307617	-294.3124389648438	1170.397827148438	-33.82484436035156	-541.1148681640625	1127.81640625	-51.08214569091797	-495.6221618652344	1374.866088867188	-57.34856033325195	-343.4888610839844	1291.579467773438	-37.31184768676758	-547.6461791992188	1229.789794921875	3.526474714279175	-502.5755004882812	1340.174194335938	-162.3721313476562	-409.9328002929688	1355.675048828125	-203.1335601806641	-425.3826904296875	1238.803344726562	-275.1654663085938	-382.9913024902344	1049.43603515625	-307.4573974609375	-434.8490295410156	1016.653259277344	-249.3109130859375	-233.8305358886719	883.17333984375	-295.9258422851562	-287.3738098144531	851.520751953125	-349.7578125	-343.8378295898438	958.5103149414062	-326.0850524902344	-164.4130096435547	722.4578857421875	-320.2261657714844	-237.940185546875	781.0218505859375	-354.1748046875	-182.4429626464844	806.56103515625	-331.8975219726562	-455.6809997558594	1350.259643554688	104.7765426635742	-481.5016784667969	1286.341796875	158.9428253173828	-511.9236450195312	1029.100708007812	201.2139739990234	-506.6190490722656	1014.547912597656	105.2760391235352	-397.4700927734375	810.7022705078125	229.5143890380859	-458.9254150390625	804.1964721679688	268.5658264160156	-498.4296569824219	963.9488525390625	226.7167816162109	-407.2727355957031	638.4683837890625	238.9606018066406	-393.7007751464844	707.1637573242188	259.9690856933594	-459.9155883789062	715.0562133789062	273.1169128417969	-463.106201171875	1553.869995117188	42.87166213989258	-316.9234619140625	1572.5263671875	-89.66966247558594	-332.5346069335938	1571.5595703125	32.04211807250977	-460.3284301757812	1551.506713867188	-119.5178680419922	-475.8786315917969	933.6241455078125	-222.3705596923828	-458.4870300292969	919.4857788085938	138.2689514160156	-334.7144470214844	927.5457763671875	71.97211456298828	-359.9832763671875	922.051025390625	-190.0654296875	-479.9398193359375	434.7392883300781	-182.3099060058594	-467.36083984375	578.318115234375	-202.4116516113281	-746.4171142578125	63.45619201660156	-151.7022247314453	-615.4508056640625	236.8795471191406	-178.357666015625	-543.8163452148438	44.55372619628906	-70.56709289550781	-621.2466430664062	44.59450531005859	-151.5465393066406	-791.1297607421875	75.18626403808594	-99.60271453857422	-228.0929718017578	483.8213195800781	94.78451538085938	-322.2737121582031	724.576904296875	125.4332046508789	-150.4031982421875	61.62264251708984	86.70630645751953	-178.1365966796875	367.2503967285156	82.94930267333984	21.77069854736328	38.23123168945312	11.14263248443604	-52.96410369873047	43.8825798034668	-13.6146936416626	-64.55660247802734	48.0422248840332	85.44926452636719	-225.8652954101562	45.68753814697266	39.09226989746094	-549.7015991210938	942.7010498046875	28.61205673217773	-623.3804931640625	48.08630752563477	-44.53488922119141	nan	nan	nan	nan	nan	nan	
372	3.71	-570.3438110351562	945.0288696289062	-105.2619705200195	-554.0751342773438	1028.22119140625	-37.48096084594727	-306.2236022949219	1170.135986328125	-35.70698165893555	-553.8170776367188	1128.443115234375	-52.58408737182617	-506.8124694824219	1375.413818359375	-58.52392959594727	-354.9097595214844	1291.55322265625	-38.89146423339844	-559.2672729492188	1230.491333007812	2.253519535064697	-514.0454711914062	1340.9091796875	-163.5966796875	-421.4281005859375	1356.126220703125	-204.5217590332031	-437.2544860839844	1239.362060546875	-276.62109375	-394.7920227050781	1049.7412109375	-308.8797607421875	-447.0754089355469	1017.190612792969	-251.0205230712891	-244.8689880371094	884.7377319335938	-296.0675659179688	-297.725341796875	852.9136962890625	-350.5643310546875	-355.1158752441406	959.27490234375	-327.1011657714844	-173.5841979980469	724.9332885742188	-320.4064636230469	-247.4138031005859	782.8555908203125	-354.8174438476562	-192.5037384033203	808.861572265625	-331.9478759765625	-466.5443420410156	1350.397094726562	103.5328140258789	-492.47900390625	1286.432739257812	157.6888427734375	-523.1629028320312	1029.14111328125	199.7688598632812	-518.7217407226562	1014.779663085938	103.7492065429688	-408.5918273925781	810.6160888671875	226.6138763427734	-469.5971984863281	804.1260986328125	266.3713684082031	-509.4773864746094	963.9049072265625	225.0178985595703	-418.6713256835938	638.3486938476562	235.8097076416016	-404.7267456054688	706.9579467773438	256.7754516601562	-470.6568908691406	714.9623413085938	270.776123046875	-473.5427551269531	1554.2275390625	41.77485275268555	-327.3834228515625	1572.487915039062	-90.97987365722656	-342.9093017578125	1571.513549804688	30.83073043823242	-470.8671264648438	1551.951416015625	-120.6131591796875	-488.9096069335938	934.766845703125	-224.0205841064453	-472.2094421386719	919.449951171875	136.2251281738281	-347.8855285644531	927.2498779296875	70.21746826171875	-373.2031860351562	922.8697509765625	-191.7874298095703	-490.2196350097656	435.2095947265625	-183.9042816162109	-478.9103393554688	578.9118041992188	-204.4724731445312	-748.4414672851562	59.29138565063477	-150.1118316650391	-621.412841796875	234.7096557617188	-178.1007843017578	-543.7765502929688	44.63040924072266	-70.69217681884766	-622.2490234375	44.59980010986328	-150.8985443115234	-793.1327514648438	68.92573547363281	-97.61721801757812	-240.9944610595703	484.6559143066406	96.34148406982422	-336.3027648925781	725.450927734375	124.8195037841797	-151.8611450195312	63.15711212158203	87.97504425048828	-188.384033203125	369.3585510253906	84.77648162841797	18.77714347839355	41.36805725097656	10.33029747009277	-55.54098892211914	46.66234588623047	-13.41261386871338	-65.80087280273438	49.16219329833984	85.94233703613281	-227.4400329589844	47.52910614013672	40.66565322875977	-562.8447265625	943.1857299804688	26.80039024353027	-624.0343017578125	46.74409866333008	-43.9738883972168	nan	nan	nan	nan	nan	nan	
